<?xml version="1.0" encoding="iso-8859-1"?>
<!-- Generator: Adobe Illustrator 19.0.0, SVG Export Plug-In . SVG Version: 6.00 Build 0)  -->
<svg version="1.1" id="Capa_1" xmlns="http://www.w3.org/2000/svg" xmlns:xlink="http://www.w3.org/1999/xlink" x="0px" y="0px"
	 viewBox="0 0 410.56 410.56" style="enable-background:new 0 0 410.56 410.56;" xml:space="preserve">
<g>
	<g>
		<path d="M111.48,142.88c-0.027,0-0.053,0-0.08,0h-9.44V8c0-4.418-3.582-8-8-8h-40c-4.418,0-8,3.582-8,8v134.88H36.6
			c-9.941,0-18,8.059-18,18v88.8c0,9.941,8.059,18,18,18h9.44v134.88c0,4.418,3.582,8,8,8h40c4.418,0,8-3.582,8-8V267.68h9.44
			c9.941,0,18-8.059,18-18v-88.8C129.48,150.939,121.421,142.88,111.48,142.88z M62.04,16h24v126.88h-24V16z M86.04,394.56h-24
			V267.68h24V394.56z M111.48,251.68H36.6c-1.105,0-2-0.895-2-2v-88.8c0-1.105,0.895-2,2-2h74.8c1.105,0,2,0.895,2,2l0.08,88.8
			C113.48,250.785,112.585,251.68,111.48,251.68z"/>
	</g>
</g>
<g>
	<g>
		<path d="M242.681,71.439c-0.027,0-0.054,0-0.081,0h-9.44V8c0-4.418-3.582-8-8-8h-40c-4.418,0-8,3.582-8,8v63.44h-9.28
			c-9.941,0-18,8.059-18,18v88.88c0,9.941,8.059,18,18,18h9.44v206.24c0,4.418,3.582,8,8,8h40c4.418,0,8-3.582,8-8V196.24h9.44
			c9.941,0,18-8.059,18-18V89.36C260.716,79.419,252.622,71.396,242.681,71.439z M193.32,16h24v55.44h-24V16z M217.32,394.56h-24
			V196.24h24V394.56z M242.76,180.56h-74.88c-1.105,0-2-0.895-2-2v-89.2c0-1.105,0.895-2,2-2h74.8c1.105,0,2,0.895,2,2l0.08,89.2
			C244.76,179.665,243.865,180.56,242.76,180.56z"/>
	</g>
</g>
<g>
	<g>
		<path d="M373.88,172.8C373.88,172.8,373.88,172.8,373.88,172.8h-9.44V8c0-4.418-3.582-8-8-8h-40c-4.418,0-8,3.582-8,8v164.8h-9.36
			c-9.91,0-17.956,8.01-18,17.92v88.88c0,9.941,8.059,18,18,18h9.44v104.96c0,4.418,3.582,8,8,8h40c4.418,0,8-3.582,8-8V297.6h9.44
			c9.941,0,18-8.059,18-18v-88.88C391.916,180.779,383.821,172.756,373.88,172.8z M324.6,16h24v156.8h-24V16z M348.6,394.56h-24
			V297.6h24V394.56z M374.04,281.6h-74.96c-1.105,0-2-0.895-2-2v-88.88c0.043-1.073,0.926-1.921,2-1.92h74.8
			c1.074-0.001,1.957,0.847,2,1.92l0.16,88.88C376.04,280.705,375.145,281.6,374.04,281.6z"/>
	</g>
</g>
<g>
	<g>
		<path d="M93.96,172.8h-40c-4.418,0-8,3.582-8,8s3.582,8,8,8h40c4.418,0,8-3.582,8-8S98.378,172.8,93.96,172.8z"/>
	</g>
</g>
<g>
	<g>
		<path d="M93.96,197.28h-40c-4.418,0-8,3.582-8,8s3.582,8,8,8h40c4.418,0,8-3.582,8-8S98.378,197.28,93.96,197.28z"/>
	</g>
</g>
<g>
	<g>
		<path d="M93.96,221.76h-40c-4.418,0-8,3.582-8,8s3.582,8,8,8h40c4.418,0,8-3.582,8-8S98.378,221.76,93.96,221.76z"/>
	</g>
</g>
<g>
	<g>
		<path d="M225.16,101.28h-40c-4.418,0-8,3.582-8,8s3.582,8,8,8h40c4.418,0,8-3.582,8-8S229.578,101.28,225.16,101.28z"/>
	</g>
</g>
<g>
	<g>
		<path d="M225.16,125.84h-40c-4.418,0-8,3.582-8,8s3.582,8,8,8h40c4.418,0,8-3.582,8-8S229.578,125.84,225.16,125.84z"/>
	</g>
</g>
<g>
	<g>
		<path d="M225.16,150.32h-40c-4.418,0-8,3.582-8,8s3.582,8,8,8h40c4.418,0,8-3.582,8-8S229.578,150.32,225.16,150.32z"/>
	</g>
</g>
<g>
	<g>
		<path d="M356.44,202.72h-40c-4.418,0-8,3.582-8,8s3.582,8,8,8h40c4.418,0,8-3.582,8-8S360.858,202.72,356.44,202.72z"/>
	</g>
</g>
<g>
	<g>
		<path d="M356.44,227.2h-40c-4.418,0-8,3.582-8,8s3.582,8,8,8h40c4.418,0,8-3.582,8-8S360.858,227.2,356.44,227.2z"/>
	</g>
</g>
<g>
	<g>
		<path d="M356.44,251.68h-40c-4.418,0-8,3.582-8,8s3.582,8,8,8h40c4.418,0,8-3.582,8-8S360.858,251.68,356.44,251.68z"/>
	</g>
</g>
<g>
</g>
<g>
</g>
<g>
</g>
<g>
</g>
<g>
</g>
<g>
</g>
<g>
</g>
<g>
</g>
<g>
</g>
<g>
</g>
<g>
</g>
<g>
</g>
<g>
</g>
<g>
</g>
<g>
</g>
</svg>
