<?xml version="1.0" encoding="iso-8859-1"?>
<!-- Generator: Adobe Illustrator 19.0.0, SVG Export Plug-In . SVG Version: 6.00 Build 0)  -->
<svg version="1.1" id="Capa_1" xmlns="http://www.w3.org/2000/svg" xmlns:xlink="http://www.w3.org/1999/xlink" x="0px" y="0px"
	 viewBox="0 0 512 512" style="enable-background:new 0 0 512 512;" xml:space="preserve">
<g>
	<g>
		<path d="M442.868,32.548C421.887,11.56,393.992,0,364.32,0s-57.567,11.56-78.548,32.548
			c-22.324,22.333-33.918,52.568-32.403,83.866L36.652,348.16l34.709,34.722l-3.688,3.688
			c-13.878,13.878-21.521,32.329-21.521,51.955c0,19.625,7.643,38.077,21.521,51.954C81.551,504.357,100.002,512,119.628,512
			c19.626,0,38.077-7.643,51.955-21.521l91.941-91.941c16.951-16.951,44.532-16.951,61.483,0l4.195,4.195l21.213-21.213
			l-4.195-4.195c-28.647-28.648-75.262-28.648-103.909,0l-91.941,91.941c-16.951,16.951-44.532,16.951-61.483,0
			s-16.951-44.532,0-61.483l3.684-3.684l34.794,34.807L359.03,222.107c1.814,0.088,3.626,0.14,5.433,0.14
			c29.334-0.002,57.377-11.521,78.405-32.559C486.175,146.364,486.175,75.872,442.868,32.548z M128.06,397.168l-49.684-49.703
			L269.2,143.408l62.844,62.867L128.06,397.168z M360.328,192.137l-76.989-77.019c-0.89-17.853,4.063-35.232,14.024-49.765
			l112.706,112.75C395.544,188.07,378.174,193.027,360.328,192.137z M431.259,156.866L318.574,44.138
			C331.947,34.955,347.75,30,364.32,30c21.656,0,42.017,8.438,57.33,23.757C449.642,81.759,452.831,125.299,431.259,156.866z"/>
	</g>
</g>
<g>
</g>
<g>
</g>
<g>
</g>
<g>
</g>
<g>
</g>
<g>
</g>
<g>
</g>
<g>
</g>
<g>
</g>
<g>
</g>
<g>
</g>
<g>
</g>
<g>
</g>
<g>
</g>
<g>
</g>
</svg>
