<?xml version="1.0" encoding="iso-8859-1"?>
<!-- Generator: Adobe Illustrator 19.0.0, SVG Export Plug-In . SVG Version: 6.00 Build 0)  -->
<svg version="1.1" id="Layer_1" xmlns="http://www.w3.org/2000/svg" xmlns:xlink="http://www.w3.org/1999/xlink" x="0px" y="0px"
	 viewBox="0 0 472 472" style="enable-background:new 0 0 472 472;" xml:space="preserve">
<path style="fill:#C42014;" d="M236,0C105.6,0,0,105.6,0,236s105.6,236,236,236s236-105.6,236-236S366.4,0,236,0z M236,349.6
	c-63.2,0-113.6-51.2-113.6-113.6c0-63.2,51.2-113.6,113.6-113.6S349.6,172.8,349.6,236S299.2,349.6,236,349.6z"/>
<g>
	<path style="fill:#840202;" d="M240.8,0v122.4c56,2.4,109.6,52,109.6,113.6s-53.6,111.2-109.6,113.6V472
		c128-2.4,231.2-107.2,231.2-236S368.8,2.4,240.8,0z"/>
	<circle style="fill:#840202;" cx="236" cy="236" r="36"/>
</g>
<g>
</g>
<g>
</g>
<g>
</g>
<g>
</g>
<g>
</g>
<g>
</g>
<g>
</g>
<g>
</g>
<g>
</g>
<g>
</g>
<g>
</g>
<g>
</g>
<g>
</g>
<g>
</g>
<g>
</g>
</svg>
